<svg width="15" height="16" viewBox="0 0 15 16" fill="none" xmlns="http://www.w3.org/2000/svg">
<path fill-rule="evenodd" clip-rule="evenodd" d="M3.40462 1.91326C2.80262 1.91326 2.31462 2.40126 2.31462 3.00326V7.57993H14.4813C14.6139 7.57993 14.7411 7.6326 14.8348 7.72637C14.9286 7.82014 14.9813 7.94732 14.9813 8.07993C14.9813 8.21253 14.9286 8.33971 14.8348 8.43348C14.7411 8.52725 14.6139 8.57993 14.4813 8.57993H14.3026C14.3071 8.6097 14.3102 8.63993 14.3119 8.67059C14.3142 8.7097 14.3151 8.7497 14.3146 8.79059V8.81659C14.3146 9.06659 14.3146 9.21326 14.3039 9.37659C14.2093 10.8673 13.4039 12.2446 12.2366 13.1446L12.2619 13.1899L12.9286 14.5233C12.9585 14.5821 12.9765 14.6462 12.9816 14.712C12.9866 14.7778 12.9785 14.844 12.9579 14.9066C12.9372 14.9693 12.9044 15.0273 12.8612 15.0772C12.818 15.1271 12.7654 15.1679 12.7064 15.1974C12.6473 15.2269 12.583 15.2444 12.5172 15.2489C12.4514 15.2534 12.3853 15.2448 12.3228 15.2237C12.2603 15.2025 12.2026 15.1692 12.153 15.1257C12.1034 15.0821 12.063 15.0292 12.0339 14.9699L11.3886 13.6799C10.7216 14.0207 9.98551 14.2043 9.23662 14.2166H9.23195C8.73862 14.2353 8.25595 14.2466 7.81462 14.2466C7.37328 14.2466 6.89062 14.2353 6.39728 14.2166H6.39262C5.64372 14.2043 4.90759 14.0207 4.24062 13.6799L3.59528 14.9699C3.56627 15.0292 3.52581 15.0821 3.47623 15.1257C3.42666 15.1692 3.36896 15.2025 3.30645 15.2237C3.24394 15.2448 3.17787 15.2534 3.11204 15.2489C3.0462 15.2444 2.98191 15.2269 2.92287 15.1974C2.86383 15.1679 2.81121 15.1271 2.76804 15.0772C2.72488 15.0273 2.69201 14.9693 2.67135 14.9066C2.65069 14.844 2.64264 14.7778 2.64766 14.712C2.65269 14.6462 2.67068 14.5821 2.70062 14.5233L3.36728 13.1899L3.39262 13.1446C2.22528 12.2446 1.41928 10.8673 1.32528 9.37659C1.31569 9.19009 1.31214 9.00332 1.31462 8.81659V8.57993H1.14795C1.01534 8.57993 0.888164 8.52725 0.794396 8.43348C0.700628 8.33971 0.647949 8.21253 0.647949 8.07993C0.647949 7.94732 0.700628 7.82014 0.794396 7.72637C0.888164 7.6326 1.01534 7.57993 1.14795 7.57993H1.31462V3.00326C1.31458 2.51749 1.48375 2.04688 1.79306 1.67231C2.10236 1.29774 2.53249 1.04261 3.0095 0.950778C3.48651 0.858943 3.98061 0.936134 4.40688 1.16909C4.83315 1.40204 5.16496 1.7762 5.34528 2.22726L5.41862 2.41059C5.96573 2.27077 6.54373 2.31577 7.06262 2.53859C7.38568 2.67772 7.67777 2.87985 7.92181 3.13316C8.16586 3.38648 8.35696 3.6859 8.48395 4.01393C8.53142 4.13471 8.53006 4.26921 8.48018 4.38901C8.43029 4.50882 8.33578 4.60453 8.21662 4.65593L4.24328 6.36659C4.18178 6.39316 4.11557 6.4071 4.04858 6.40758C3.98159 6.40806 3.91519 6.39507 3.85331 6.36939C3.79144 6.34371 3.73536 6.30585 3.6884 6.25807C3.64144 6.2103 3.60456 6.15357 3.57995 6.09126C3.31809 5.42475 3.32286 4.68301 3.59328 4.01993C3.78362 3.54779 4.10202 3.13818 4.51262 2.83726L4.41662 2.59859C4.33574 2.39631 4.19609 2.2229 4.01571 2.10074C3.83532 1.97858 3.62247 1.91328 3.40462 1.91326ZM2.53662 8.57993H2.46995C2.42774 8.5828 2.3882 8.60162 2.35936 8.63257C2.33051 8.66352 2.31452 8.70428 2.31462 8.74659V8.80193C2.31462 9.06993 2.31462 9.18459 2.32328 9.31326C2.44662 11.2613 4.11995 12.9986 6.06128 13.1953C6.19128 13.2086 6.26328 13.2106 6.43462 13.2173C6.91995 13.2353 7.38995 13.2466 7.81462 13.2466C8.23928 13.2466 8.70928 13.2353 9.19462 13.2173C9.36595 13.2106 9.43795 13.2079 9.56795 13.1946C11.5093 12.9986 13.1826 11.2613 13.3066 9.31326C13.3146 9.18459 13.3146 9.06993 13.3146 8.80193V8.73593C13.3146 8.73459 13.3146 8.73459 13.3146 8.73593C13.3119 8.6955 13.2946 8.65743 13.2659 8.62884C13.2372 8.60025 13.1991 8.5831 13.1586 8.58059C13.1595 8.58059 13.1595 8.58059 13.1586 8.58059H13.1479L13.0933 8.57993H2.53662ZM6.66995 3.45859C6.46087 3.36889 6.23483 3.32559 6.0074 3.33169C5.77998 3.33779 5.55658 3.39314 5.35262 3.49393C4.97281 3.68146 4.67593 4.00304 4.51928 4.39659C4.41419 4.65551 4.37082 4.93534 4.39262 5.21393L7.31262 3.95659C7.14466 3.73793 6.92305 3.56639 6.66928 3.45859" fill="black"/>
</svg>
