<svg width="16" height="17" viewBox="0 0 16 17" fill="none" xmlns="http://www.w3.org/2000/svg">
<path d="M1.5 13.08V9.57996C1.50157 9.05 1.71278 8.54221 2.08752 8.16747C2.46225 7.79274 2.97005 7.58152 3.5 7.57996H12.5C13.03 7.58152 13.5377 7.79274 13.9125 8.16747C14.2872 8.54221 14.4984 9.05 14.5 9.57996V13.08M12 7.57996H3V4.32996C3.00099 3.99874 3.133 3.68137 3.36721 3.44717C3.60142 3.21296 3.91878 3.08095 4.25 3.07996H11.75C12.0812 3.08095 12.3986 3.21296 12.6328 3.44717C12.867 3.68137 12.999 3.99874 13 4.32996V7.57996H12Z" stroke="black" stroke-linecap="round" stroke-linejoin="round"/>
<path d="M1.5 13.08V12.83C1.50058 12.6312 1.57978 12.4408 1.72031 12.3003C1.86083 12.1597 2.05127 12.0805 2.25 12.08H13.75C13.9487 12.0805 14.1392 12.1597 14.2797 12.3003C14.4202 12.4408 14.4994 12.6312 14.5 12.83V13.08M3.5 7.57996V7.07996C3.50074 6.81497 3.60634 6.56104 3.79371 6.37367C3.98109 6.18629 4.23501 6.0807 4.5 6.07996H7C7.26499 6.0807 7.51891 6.18629 7.70629 6.37367C7.89366 6.56104 7.99926 6.81497 8 7.07996M8 7.07996V7.57996M8 7.07996C8.00074 6.81497 8.10634 6.56104 8.29371 6.37367C8.48109 6.18629 8.73501 6.0807 9 6.07996H11.5C11.765 6.0807 12.0189 6.18629 12.2063 6.37367C12.3937 6.56104 12.4993 6.81497 12.5 7.07996V7.57996" stroke="black" stroke-linecap="round" stroke-linejoin="round"/>
</svg>
