<svg width="30" height="30" viewBox="0 0 30 30" fill="none" xmlns="http://www.w3.org/2000/svg">
<path d="M22.69 14.1937C23.0587 14.5624 23.3512 15.0001 23.5508 15.4818C23.7503 15.9635 23.853 16.4798 23.853 17.0012C23.853 17.5227 23.7503 18.039 23.5508 18.5207C23.3512 19.0024 23.0587 19.4401 22.69 19.8088L22.6775 19.8213L15 27.5L7.31995 19.82L7.3087 19.8088C6.93133 19.4317 6.6339 18.9824 6.43419 18.4878C6.23448 17.9931 6.13661 17.4633 6.14642 16.9299C6.15624 16.3966 6.27354 15.8707 6.49131 15.3837C6.70908 14.8968 7.02285 14.4587 7.41383 14.0959C7.80482 13.733 8.26499 13.4527 8.76681 13.2718C9.26864 13.0908 9.8018 13.013 10.3344 13.0429C10.867 13.0728 11.3881 13.2099 11.8665 13.4458C12.3449 13.6818 12.7708 14.0119 13.1187 14.4162L15 16.2987L16.8125 14.4862C17.1638 14.0573 17.6012 13.7067 18.0963 13.457C18.5915 13.2074 19.1334 13.0642 19.6872 13.0368C20.2411 13.0093 20.7945 13.0982 21.3119 13.2977C21.8293 13.4972 22.2991 13.8029 22.6912 14.195L22.69 14.1937ZM11.2487 6.25C11.2487 6.74246 11.3457 7.23009 11.5342 7.68506C11.7226 8.14003 11.9988 8.55343 12.3471 8.90165C12.6953 9.24987 13.1087 9.52609 13.5636 9.71455C14.0186 9.903 14.5062 10 14.9987 10C15.4912 10 15.9788 9.903 16.4338 9.71455C16.8887 9.52609 17.3021 9.24987 17.6504 8.90165C17.9986 8.55343 18.2748 8.14003 18.4633 7.68506C18.6517 7.23009 18.7487 6.74246 18.7487 6.25C18.7487 5.75754 18.6517 5.26991 18.4633 4.81494C18.2748 4.35997 17.9986 3.94657 17.6504 3.59835C17.3021 3.25013 16.8887 2.97391 16.4338 2.78545C15.9788 2.597 15.4912 2.5 14.9987 2.5C14.5062 2.5 14.0186 2.597 13.5636 2.78545C13.1087 2.97391 12.6953 3.25013 12.3471 3.59835C11.9988 3.94657 11.7226 4.35997 11.5342 4.81494C11.3457 5.26991 11.2487 5.75754 11.2487 6.25Z" stroke="black"/>
</svg>
