<svg width="30" height="30" viewBox="0 0 30 30" fill="none" xmlns="http://www.w3.org/2000/svg">
<path d="M13.75 2.5C8.2275 2.5 3.75 6.93125 3.75 12.3987C3.75 14.265 4.27125 16.0113 5.17875 17.5M18.125 13.75V16.25M21.875 13.75V16.25M18.125 3.75V6.25M21.875 3.75V6.25M16.25 8.125H13.75M16.25 11.875H13.75M26.25 8.125H23.75M26.25 11.875H23.75M17.5 23.75L17.3375 24.5587C17.1625 25.4425 17.0737 25.8837 16.875 26.2337C16.5687 26.7732 16.0729 27.1795 15.4838 27.3738C15.1025 27.5 14.65 27.5 13.75 27.5C12.85 27.5 12.3975 27.5 12.0162 27.375C11.4269 27.1805 10.931 26.7737 10.625 26.2337C10.4263 25.8837 10.3375 25.4425 10.1625 24.5587L10 23.75M21.25 6.25H18.75C17.5712 6.25 16.9825 6.25 16.6163 6.61625C16.25 6.9825 16.25 7.57125 16.25 8.75V11.25C16.25 12.4288 16.25 13.0175 16.6163 13.3837C16.9825 13.75 17.5712 13.75 18.75 13.75H21.25C22.4288 13.75 23.0175 13.75 23.3838 13.3837C23.75 13.0175 23.75 12.4288 23.75 11.25V8.75C23.75 7.57125 23.75 6.9825 23.3838 6.61625C23.0175 6.25 22.4288 6.25 21.25 6.25ZM7.97875 21.3725C7.86375 21.0275 7.80625 20.8537 7.8125 20.7137C7.81957 20.569 7.86843 20.4294 7.95317 20.3118C8.03792 20.1942 8.15491 20.1037 8.29 20.0513C8.42 20 8.6025 20 8.965 20H18.535C18.8988 20 19.08 20 19.21 20.05C19.3453 20.1026 19.4624 20.1933 19.5472 20.3111C19.6319 20.4289 19.6807 20.5688 19.6875 20.7137C19.6937 20.8537 19.6362 21.0262 19.5212 21.3725C19.3087 22.0112 19.2025 22.3313 19.0387 22.59C18.6962 23.1308 18.1594 23.5195 17.5388 23.6762C17.2413 23.75 16.9062 23.75 16.235 23.75H11.265C10.5938 23.75 10.2575 23.75 9.96125 23.675C9.34083 23.5186 8.80399 23.1303 8.46125 22.59C8.2975 22.3313 8.19125 22.0112 7.97875 21.3725Z" stroke="black" stroke-linecap="round" stroke-linejoin="round"/>
</svg>
