<svg width="16" height="16" viewBox="0 0 16 16" fill="none" xmlns="http://www.w3.org/2000/svg">
<g clip-path="url(#clip0_18_59)">
<path d="M15.2917 1.4V11.1C15.2917 11.2667 15.2334 11.4167 15.1167 11.55C15.0001 11.6833 14.8501 11.75 14.6667 11.75C14.4834 11.75 14.3251 11.6833 14.1917 11.55C14.0584 11.4167 13.9917 11.2667 13.9917 11.1V2.95L1.39175 15.55C1.25841 15.6833 1.10008 15.75 0.916748 15.75C0.733415 15.75 0.583415 15.6917 0.466748 15.575C0.350081 15.4583 0.291748 15.3083 0.291748 15.125C0.291748 14.9417 0.358415 14.7833 0.491748 14.65L13.0917 2.05H4.94175C4.77508 2.05 4.62508 1.98333 4.49175 1.85C4.35841 1.71667 4.29175 1.55833 4.29175 1.375C4.29175 1.19167 4.35841 1.04167 4.49175 0.925C4.62508 0.808333 4.77508 0.75 4.94175 0.75H14.6417C14.8417 0.75 15.0001 0.808333 15.1167 0.925C15.2334 1.04167 15.2917 1.2 15.2917 1.4Z" fill="#2D2D2D"/>
</g>
<defs>
<clipPath id="clip0_18_59">
<rect width="15" height="15" fill="white" transform="matrix(1 0 0 -1 0.291748 15.75)"/>
</clipPath>
</defs>
</svg>
