<svg width="30" height="30" viewBox="0 0 30 30" fill="none" xmlns="http://www.w3.org/2000/svg">
<g clip-path="url(#clip0_35_1036)">
<path d="M15.1294 0.00016035C15.6207 0.00016035 16.1044 0.0320354 16.5544 0.107035C16.9978 0.164146 17.4352 0.260781 17.8613 0.395785C18.2863 0.523285 18.7076 0.68766 19.1251 0.88891C19.5319 1.08204 19.9501 1.31829 20.3682 1.57516C21.0751 2.02516 21.7707 2.38891 22.4794 2.67954C23.8743 3.23911 25.3499 3.57145 26.8501 3.66391C27.6088 3.72016 28.3944 3.74891 29.2069 3.75016V11.2502C29.2069 12.6739 29.0251 14.0277 28.6613 15.3114C28.3118 16.5793 27.8153 17.802 27.1819 18.9545C26.5513 20.1056 25.8049 21.1893 24.9544 22.1889C24.0915 23.2117 23.1566 24.1717 22.1569 25.0614C21.1432 25.9526 20.0769 26.7823 18.9638 27.5458C17.8488 28.3208 16.7276 29.0352 15.6001 29.6889L15.1501 29.957L14.7001 29.6889C13.5435 29.0195 12.4138 28.3046 11.3138 27.5458C10.1947 26.7905 9.12794 25.9604 8.12068 25.0614C7.12167 24.1716 6.18742 23.2117 5.32505 22.1889C4.47746 21.1846 3.7278 20.1015 3.0863 18.9545C2.46429 17.7966 1.96833 16.5752 1.60693 15.3114C1.24329 13.9886 1.06286 12.6221 1.07068 11.2502V3.75016C1.88318 3.74891 2.66943 3.72016 3.42943 3.66391C4.17891 3.61296 4.9235 3.50579 5.65693 3.34329C6.37505 3.18204 7.09318 2.96829 7.80005 2.67954C8.53338 2.38311 9.2366 2.01706 9.90005 1.58641C10.7251 1.05016 11.5613 0.654535 12.3863 0.39391C13.2749 0.121828 14.2002 -0.0109962 15.1294 0.00016035ZM27.3207 5.59329C25.9014 5.52382 24.4954 5.28654 23.1319 4.88641C21.7762 4.48094 20.4846 3.88566 19.2957 3.11829C18.6788 2.71442 18.0094 2.39709 17.3063 2.17516C16.6035 1.96321 15.8728 1.85828 15.1388 1.86391C14.3993 1.8594 13.6632 1.96429 12.9544 2.17516C12.2505 2.39048 11.5821 2.70826 10.9707 3.11829C9.77924 3.88908 8.48446 4.48692 7.12505 4.89391C5.7963 5.28016 4.40318 5.51641 2.94568 5.60266V11.2595C2.94568 12.5008 3.10693 13.6933 3.42943 14.837C3.75826 15.9726 4.21099 17.0686 4.77943 18.1052C5.35492 19.1524 6.03326 20.1398 6.80443 21.0527C7.5863 21.9733 8.42068 22.8302 9.32068 23.6439C10.2207 24.4577 11.1638 25.2114 12.1501 25.9052C13.1463 26.6002 14.1426 27.2358 15.1388 27.812C16.1587 27.2193 17.1528 26.5831 18.1182 25.9052C19.1121 25.2133 20.0603 24.458 20.9569 23.6439C21.8569 22.8302 22.6932 21.9733 23.4751 21.0527C24.2462 20.1398 24.9246 19.1524 25.5001 18.1052C26.0656 17.0697 26.5116 15.9733 26.8294 14.837C27.1621 13.6739 27.3275 12.4693 27.3207 11.2595V5.59329Z" fill="#C8953A"/>
<path fill-rule="evenodd" clip-rule="evenodd" d="M22.1194 8.82936L21.2944 8.12061L20.5332 8.18623L12.3582 17.8387L9.57379 13.8637L8.82379 13.7362L7.95567 14.3569L7.82629 15.1069L11.4057 20.2181L11.8125 20.4431L12.6694 20.4956L13.1082 20.3044L22.1738 9.58873L22.1194 8.82936Z" fill="#C8953A"/>
</g>
<defs>
<clipPath id="clip0_35_1036">
<rect width="30" height="30" fill="white"/>
</clipPath>
</defs>
</svg>
