<svg width="14" height="15" viewBox="0 0 14 15" fill="none" xmlns="http://www.w3.org/2000/svg">
<path d="M2.80012 2.50995C3.91786 1.41457 5.42272 0.80455 6.98769 0.812454C8.55267 0.820358 10.0513 1.44555 11.1579 2.55216C12.2645 3.65878 12.8897 5.1574 12.8976 6.72238C12.9055 8.28735 12.2955 9.79221 11.2001 10.91L8.06062 14.0495C7.77933 14.3307 7.39786 14.4886 7.00012 14.4886C6.60237 14.4886 6.22091 14.3307 5.93962 14.0495L2.80012 10.91C1.68628 9.796 1.06055 8.28523 1.06055 6.70995C1.06055 5.13467 1.68628 3.6239 2.80012 2.50995Z" stroke="#515151" stroke-width="0.5" stroke-linejoin="round"/>
<path d="M7 8.95996C8.24264 8.95996 9.25 7.9526 9.25 6.70996C9.25 5.46732 8.24264 4.45996 7 4.45996C5.75736 4.45996 4.75 5.46732 4.75 6.70996C4.75 7.9526 5.75736 8.95996 7 8.95996Z" stroke="#515151" stroke-width="0.5" stroke-linecap="round" stroke-linejoin="round"/>
</svg>
